<?xml version="1.0" encoding="utf-8" ?>
<svg xmlns="http://www.w3.org/2000/svg" xmlns:xlink="http://www.w3.org/1999/xlink" width="256" height="256">
	<path fill="#192B0E" transform="scale(0.25 0.25)" d="M739.192 305.403C740.694 310.308 739.857 321.712 740.225 327.377C740.542 332.27 741.613 337.152 741.731 342.051C741.772 343.779 741.703 345.63 741.111 347.274C740.702 348.413 740.49 349.109 739.352 349.654C735.75 346.388 737.214 328.819 736.893 323.865L736.852 323.319L736.348 325.28C734.848 331.107 735.005 336.911 734.989 342.875C734.957 344.318 735.224 346.773 734.506 347.956C726.83 346.2 719.055 345.931 711.221 345.921C718.802 330.867 727.888 317.841 739.192 305.403Z"/>
	<path fill="#2F541D" transform="scale(0.25 0.25)" d="M568.071 261.017C570.13 260.577 572.751 261.179 574.654 261.99C576.54 262.794 577.846 264.293 578.544 266.201C580.355 271.151 578.67 277.331 576.598 281.991C573.759 288.378 569.453 293.127 562.851 295.652C560.729 295.655 558.861 295.564 556.9 294.674C554.097 293.402 552.019 291.332 551.091 288.361C549.54 283.388 550.952 277.229 553.334 272.748C556.595 266.614 561.597 263.057 568.071 261.017Z"/>
	<path fill="#2F541D" transform="scale(0.25 0.25)" d="M539.251 236.558C541.605 236.303 543.621 236.171 545.811 237.214C548.289 238.393 549.995 240.524 550.879 243.093C552.787 248.639 551.518 256.63 548.999 261.812C546.291 267.382 542.305 270.087 536.65 272.032C535.229 272.037 533.957 271.837 532.642 271.29C529.233 269.872 526.787 267.407 525.532 263.93C523.597 258.569 524.313 252.17 526.834 247.127C529.505 241.781 533.579 238.321 539.251 236.558Z"/>
	<path fill="#2F541D" transform="scale(0.25 0.25)" d="M452.977 260.548C454.134 260.706 455.291 260.869 456.438 261.092C462.483 262.266 467.871 266.923 471.124 271.992C473.859 276.255 475.562 281.675 474.262 286.718C473.261 290.602 470.625 293.565 467.18 295.476C464.487 295.714 462.284 295.769 459.745 294.693C453.623 292.099 448.853 286.148 446.645 279.969C445.076 275.58 444.219 269.812 446.476 265.519C447.939 262.735 450.063 261.464 452.977 260.548Z"/>
	<path fill="#2F541D" transform="scale(0.25 0.25)" d="M479.833 236.025C481.588 235.883 483.165 235.939 484.907 236.232C489.721 237.039 493.793 239.981 496.526 243.97C499.746 248.672 501.328 254.834 500.226 260.477C499.305 265.195 496.693 268.663 492.756 271.309C491.099 271.7 489.487 271.967 487.782 271.734C483.791 271.19 480.276 268.52 477.913 265.371C473.988 260.143 472.091 252.415 473.265 245.949C474.07 241.511 476.104 238.494 479.833 236.025Z"/>
	<path fill="#2F541D" transform="scale(0.25 0.25)" d="M448.264 354.956C447.415 363.849 446.5 372.039 449.142 380.705C456.606 405.188 478.99 419.22 500.323 430.482C495.148 434.718 490.73 440.163 486.229 445.095L479.991 452.606C460.866 435.604 442.115 415.412 440.275 388.493C439.592 378.487 441.436 362.83 448.264 354.956Z"/>
	<path fill="#2F541D" transform="scale(0.25 0.25)" d="M577.499 353.838C577.948 354.223 578.362 354.631 578.699 355.121C584.515 363.578 586.253 380.034 584.703 389.986C580.794 415.093 562.666 437.327 542.683 451.938L537.08 446.145C532.205 440.645 526.57 436.011 521.777 430.635C535.341 424.137 548.677 417.157 559.074 406.011C574.245 389.748 578.176 375.527 577.499 353.838Z"/>
	<path fill="#2F541D" transform="scale(0.25 0.25)" d="M849.638 281.41C853.324 286.16 856.205 291.839 859.232 297.037C874.347 322.988 887.076 350.761 896.617 379.24C900.539 390.947 903.236 403.209 907.378 414.797C902.515 416.785 897.813 419.112 893.324 421.848C890.682 413.256 888.537 404.491 885.733 395.951C878.236 373.118 868.871 351.063 858.253 329.516C854.812 322.533 851.027 313.436 845.354 308.058C847.809 299.544 849.367 290.274 849.638 281.41Z"/>
	<path fill="#2F541D" transform="scale(0.25 0.25)" d="M174.866 279.216C175.618 288.765 176.705 297.963 178.508 307.367C165.173 329.865 153.574 354.176 144.595 378.747C141.885 386.164 139.756 393.876 137.398 401.416C135.685 406.896 133.902 415.762 130.38 420.202C125.932 417.614 121.237 415.352 116.513 413.326C125.899 380.59 137.574 349.064 153.05 318.688C159.887 305.271 167.979 292.567 174.866 279.216Z"/>
	<path fill="#192B0E" transform="scale(0.25 0.25)" d="M845.354 308.058C851.027 313.436 854.812 322.533 858.253 329.516C868.871 351.063 878.236 373.118 885.733 395.951C888.537 404.491 890.682 413.256 893.324 421.848C883.009 427.701 873.464 434.64 863.855 441.559C856.469 409.48 844.479 379.83 831.264 349.811C837.517 336.212 841.748 322.552 845.354 308.058Z"/>
	<path fill="#386641" transform="scale(0.25 0.25)" d="M130.38 420.202C133.902 415.762 135.685 406.896 137.398 401.416C139.756 393.876 141.885 386.164 144.595 378.747C153.574 354.176 165.173 329.865 178.508 307.367C181.355 318.222 184.35 329.064 188.194 339.615C189.384 342.881 193.351 350.847 193.346 353.97C193.342 356.867 184.521 372.229 182.755 376.79C174.65 397.728 169.135 419.076 162.575 440.483C152.298 432.791 141.612 426.394 130.38 420.202Z"/>
	<path fill="#2F541D" transform="scale(0.25 0.25)" d="M509.788 187.239C512.823 187.21 515.853 187.212 518.883 187.399C540.474 188.73 561.1 199.182 575.313 215.413C589.346 231.437 597.85 253.097 596.389 274.534C594.363 304.252 569.448 339.336 547.639 358.57C552.032 347.709 556.708 336.976 562.027 326.533C570.787 309.334 583.425 293.438 584.526 273.389C585.525 255.208 578.594 236.569 566.34 223.153C552.771 208.298 534.364 199.962 514.315 198.955C504.158 199.018 494.553 200.442 484.974 203.892C468.303 209.895 453.485 224.287 446.113 240.316C431.229 272.678 444.303 290.402 459.059 318.611C465.822 331.539 472.029 345.409 477.058 359.108C455.464 338.754 430.364 302.6 428.601 272.28C427.337 250.531 435.294 230.008 449.814 213.907C465.475 196.54 486.776 188.4 509.788 187.239Z"/>
	<path fill="#2F541D" transform="scale(0.25 0.25)" d="M682.055 695.426C700.212 649.795 710.576 611.645 715.262 562.485C716.334 551.24 716.981 539.909 717.628 528.631C718.221 518.278 718.538 507.378 721.061 497.283C723.751 486.519 728.704 476.505 737.015 468.992L737.663 471.965C727.394 483.263 725.903 498.84 726.582 513.522C727.314 529.339 732.644 543.811 740.866 557.169C736.12 555.613 732.132 553.552 727.944 550.852C734.631 568.148 740.183 585.104 751.527 600.15C744.607 597.263 737.416 595.167 730.42 592.495C741.25 603.77 745.712 619.512 745.428 634.934C745.374 637.86 743.367 653.646 743.528 654.36C740.041 655.79 736.295 659.388 733.091 661.573C723.088 668.398 712.97 675.008 703.027 681.931C697.227 685.969 690.364 691.701 684.158 694.851C683.439 695.215 682.839 695.299 682.055 695.426Z"/>
	<path fill="#2F541D" transform="scale(0.25 0.25)" d="M508.564 273.675C521.886 272.965 531.739 278.259 539.954 288.38C543.246 292.436 546.377 296.678 550.921 299.43C554.57 301.64 558.216 302.364 562.335 303.247C557.342 318.842 552.141 334.319 545.899 349.466C544.031 353.998 542.216 359.334 539.383 363.339C535.098 369.394 524.025 372.271 517.125 373.541C504.574 373.942 495.626 371.77 485.1 364.836C475.46 344.916 468.232 323.328 462.164 302.08C486.924 298.821 480.553 278.876 508.564 273.675Z"/>
	<path fill="#2F541D" transform="scale(0.25 0.25)" d="M271.417 180.368C366.746 115.375 479.057 90.7946 592.62 112.355C636.04 120.599 678.954 137.181 717.43 158.831C729.351 165.539 740.176 174.358 752.276 180.608C750.549 186.732 748.74 192.826 746.891 198.914C741.078 194.919 735.496 190.63 729.583 186.772C696.259 165.026 660.514 147.753 622.189 136.798C524.988 109.014 423.23 118.628 332.383 162.843C318.32 169.687 304.079 177.708 290.926 186.156C285.816 189.438 281.184 194.157 275.844 197.01C275.628 197.125 275.409 197.236 275.192 197.349C274.001 191.694 272.922 185.946 271.417 180.368Z"/>
	<path fill="#775E1F" transform="scale(0.25 0.25)" d="M239.552 121.276L240.335 121.665C246.868 130.195 254.097 153.126 257.641 163.717C265.81 188.125 271.843 217.484 270.738 243.247C268.724 290.198 245.462 336.303 224.892 377.568C225.751 366.991 225.453 356.252 225.898 345.64C226.65 327.716 228.053 309.841 229.747 291.983C232.288 265.193 238.428 237.576 238.425 210.74L238.386 210.719L238.27 210.202C237.856 213.224 237.039 216.169 236.303 219.126C228.757 249.819 222.126 280.691 219.631 312.259C217.869 334.557 218.276 356.773 218.508 379.112C201.168 352.888 189.851 324.416 185.276 293.249C178.036 243.926 196.384 196.569 219.776 154.081C225.834 143.078 232.053 131.349 239.552 121.276Z"/>
	<path fill="#775E1F" transform="scale(0.25 0.25)" d="M784.78 122.749C788.721 125.854 793.478 135.864 796.015 140.411C811.479 168.114 826.207 196.221 833.954 227.207C848.802 286.601 831.509 337.345 801.062 388.041C805.671 360.207 803.882 328.277 801.917 300.264C800.38 278.36 798.426 256.551 794.804 234.88C793.919 227.939 793.11 221.027 791.299 214.25C791.622 249.966 794.354 285.537 795.441 321.211C796.028 340.468 794.999 359.744 795.596 378.967C792.062 368.435 787.992 357.674 783.452 347.531C774.412 327.329 764.216 307.773 757.373 286.646C752.602 271.916 749.496 255.925 749.561 240.412C749.717 203.306 768.047 155.508 784.78 122.749Z"/>
	<path fill="#775E1F" transform="scale(0.25 0.25)" d="M192.508 601.067C203.674 606.386 214.471 613.634 224.805 620.407C231.645 624.89 255.8 643.84 261.775 644.812C267.338 649.283 272.734 654.037 278.456 658.3C285.699 663.698 341.347 703.393 344.675 703.951C363.368 741.956 384.698 777.83 413.153 809.432C420.685 817.798 428.046 825.702 437.058 832.548C410.093 827.676 383.688 817.379 359.69 804.245C296.516 769.671 244.823 716.061 212.765 651.652C204.705 635.458 197.569 618.449 192.508 601.067Z"/>
	<path fill="#775E1F" transform="scale(0.25 0.25)" d="M743.528 654.36C752.275 649.876 760.407 644.177 768.622 638.797L806.796 614.167C814.15 609.513 821.411 604.567 829.101 600.484C806.324 684.239 748.607 755.221 673.661 798.136C645.861 814.056 616.713 825.108 586.191 834.499C593.396 830.063 600.289 822.545 606.143 816.394C639.704 781.132 661.644 739.101 682.055 695.426C682.839 695.299 683.439 695.215 684.158 694.851C690.364 691.701 697.227 685.969 703.027 681.931C712.97 675.008 723.088 668.398 733.091 661.573C736.295 659.388 740.041 655.79 743.528 654.36Z"/>
	<path fill="#775E1F" transform="scale(0.25 0.25)" d="M988.685 398.201L989.225 398.268C989.26 405.235 965.15 457.185 960.419 465.351C919 536.841 867.501 571.213 788.534 592.094C833.972 541.487 883.06 495.551 935.508 452.299L935.053 451.824L936.509 451.139C933.986 451.839 930.531 454.717 928.261 456.183C887.865 481.137 847.705 517.333 815.866 552.632C802.662 567.271 790.41 582.703 777.689 597.751C780.715 589.895 782.887 581.677 785.847 573.77C797.129 543.628 810.825 515.915 830.132 490.086C867.805 439.69 926.777 407.145 988.685 398.201Z"/>
	<path fill="#775E1F" transform="scale(0.25 0.25)" d="M36.017 397.229C72.83 405.474 104.334 414.401 136.714 434.695C182.041 463.103 215.53 506.656 232.997 557.11C237.213 569.289 240.019 581.538 242.909 594.067C201.781 540.376 150.981 491.713 94.3537 454.617C93.4023 453.992 92.4603 453.49 91.4441 452.984C91.7038 454.084 130.86 487.148 134.413 490.327C170.571 522.674 205.479 557.246 235.108 595.748C218.077 590.528 200.779 583.13 184.618 575.649C121.439 546.4 79.9858 505.41 52.1464 441.245C45.9187 426.891 41.4262 411.895 36.017 397.229Z"/>
	<path fill="#192B0E" transform="scale(0.25 0.25)" d="M663.573 292.54C680.718 303.586 690.293 319.326 699.556 336.978C701.9 341.445 704.551 345.879 706.607 350.481C727.087 350.222 757.099 357.467 771.878 372.244C776.662 377.028 779.107 383.945 778.904 390.693C778.855 392.323 778.66 393.462 777.451 394.577L776.938 394.552L777.085 394.038L776.653 394.336C763.314 379.714 759.237 370.685 739.944 361.021C746.34 369.143 756.093 383.374 754.977 394.348C754.45 399.533 750.886 403.69 746.91 406.768C732.463 417.95 699.713 428.342 681.885 425.957C673.331 424.812 666.773 420.803 661.6 413.877C660.049 411.801 658.701 409.59 657.353 407.38C662.046 425.146 670.441 437.869 686.491 447.261C709.792 460.896 759.814 466.347 785.51 459.518C796.858 456.502 806.378 450.264 812.315 439.959C813.674 437.599 814.911 435.144 816.124 432.706C808.785 425.099 793.094 421.083 793.096 408.231C793.096 406.474 793.682 404.798 794.949 403.555C797.6 400.954 802.061 400.766 805.541 400.951C811.907 401.288 820.426 402.65 824.883 407.59C826.287 409.147 826.938 410.894 826.749 412.99C826.151 419.621 821.463 424.621 818.328 430.168C813.204 439.235 810.854 448.405 802.341 455.124C785.146 468.697 763.151 468.051 742.437 467.418L737.663 471.965L737.015 468.992L737.696 467.688C735.052 466.931 730.981 469.277 728.591 470.616C718.013 476.544 712.581 486.779 709.455 498.186C707.364 505.811 706.454 513.717 706.409 521.611C669.544 517.67 635.845 508.075 602.067 492.764C605.488 481.312 611.9 471.107 616.123 459.985C621.017 447.091 624.428 433.754 628.984 420.764C634.568 404.84 645.216 383.848 654.469 369.675C648.915 343.16 662.928 318.686 663.573 292.54ZM668.272 305.363C662.199 319.962 657.507 353.971 663.645 368.335C664.11 369.423 664.766 370.423 665.421 371.404C665.274 362.948 664.899 354.08 666.138 345.701C667.867 334.007 677.65 316.172 668.368 305.454C668.339 305.421 668.304 305.393 668.272 305.363ZM733.508 385.154C731.806 386.966 730.289 388.55 730.474 391.198C730.591 392.866 731.313 394.204 732.588 395.288C734.534 396.945 737.284 396.793 739.661 396.695C741.501 394.67 743.336 392.907 743.086 389.951C742.972 388.594 742.354 387.5 741.325 386.622C739.131 384.749 736.178 384.913 733.508 385.154Z"/>
	<path fill="#386641" transform="scale(0.25 0.25)" d="M275.192 197.349C275.409 197.236 275.628 197.125 275.844 197.01C281.184 194.157 285.816 189.438 290.926 186.156C304.079 177.708 318.32 169.687 332.383 162.843C423.23 118.628 524.988 109.014 622.189 136.798C660.514 147.753 696.259 165.026 729.583 186.772C735.496 190.63 741.078 194.919 746.891 198.914C741.981 214.466 741.627 230.509 740.94 246.648C732.523 239.415 724.332 232.056 715.406 225.44C671.431 192.85 618.826 170.645 564.679 162.445C484.41 150.288 400.586 165.287 330.96 207.645C318.567 215.185 306.508 223.502 295.041 232.387C289.939 236.34 285.216 240.849 280.013 244.64L279.568 244.959C279.153 228.834 277.565 213.308 275.192 197.349Z"/>
	<path fill="#2F541D" transform="scale(0.25 0.25)" d="M334.501 287.61C361.4 300.282 386.354 329.12 396.313 356.973C398.24 362.361 399.595 368.349 402.261 373.413C404.075 376.859 406.776 379.811 408.929 383.045C411.645 387.126 413.821 391.99 415.762 396.477C424.278 416.161 427.656 436.933 427.588 458.25C427.557 468.193 427.013 478.205 427.35 488.14C392.106 506.096 344.283 521.501 304.47 521.508C305.078 568.77 313.778 617.054 328.676 661.863C333.402 676.079 339.064 690.06 344.675 703.951C341.347 703.393 285.699 663.698 278.456 658.3C272.734 654.037 267.338 649.283 261.775 644.812C251.257 627.871 254.81 588.689 259.26 569.664C262.687 555.009 268.211 540.718 276.234 527.944C278.759 523.924 282.147 520.402 284.9 516.525C293.001 505.116 297.45 493.634 300.365 480.061C280.445 490.89 261.576 498.781 238.758 491.907C220.616 486.442 208.458 471.235 199.893 455.073C196.147 448.005 185.616 427.916 187.506 420.736C187.972 418.965 189.191 417.874 190.755 417.036C195.447 414.522 201.919 414.063 207.157 413.351C219.433 411.681 241.862 409.963 252.331 404.128C272.727 392.76 254.247 368.826 307.567 355.729C307.35 344.625 306.141 333.953 302.73 323.335C299.215 312.396 294.444 302.526 293.393 290.875C311.426 297.356 327.117 319.61 334.996 336.347C336.276 339.067 337.382 341.903 338.328 344.756C340.728 345.099 343.143 345.522 345.556 345.74C345.354 338.329 344.693 331.162 342.788 323.975C339.499 311.565 334.224 300.758 334.501 287.61ZM299.936 394.515C296.981 396.757 294.566 399.009 293.991 402.847C293.703 404.771 294.056 406.757 295.246 408.33C296.585 410.1 298.856 411.388 301.063 411.645C302.371 411.797 303.756 411.622 305.063 411.504C307.843 409.924 309.898 408.399 310.741 405.16C311.308 402.982 310.914 400.641 309.735 398.732C308.578 396.859 306.371 395.117 304.203 394.61C302.856 394.294 301.31 394.451 299.936 394.515ZM203.632 418.698C199.287 419.162 195.186 419.75 191.049 421.224C193.422 424.022 195.884 426.473 199.141 428.237C202.679 427.623 206.802 424.9 208.884 421.938C209.298 421.349 209.465 420.773 209.603 420.078C209.145 419.217 209.066 418.907 208.038 418.638C206.759 418.304 204.965 418.598 203.632 418.698Z"/>
	<path fill="#2F541D" transform="scale(0.25 0.25)" d="M513.38 567.828C512.318 564.725 513.486 540.178 513.476 534.686C513.424 505.215 512.69 475.756 513.045 446.276C513.067 444.487 513.041 443.011 513.664 441.318C521.898 449.808 528.813 459.47 537.517 467.523C573.429 500.752 620.181 520.994 667.539 531.532C678.529 533.977 689.605 535.11 700.606 537.219C700.146 556.769 697.588 576.399 694.111 595.626C679.006 679.152 640.319 760.493 578.591 819.597C562.165 835.325 544.51 848.608 525.557 861.094C522.361 863.2 516.787 867.831 513.034 868.038C513.498 858.723 513.038 849.144 513.033 839.803L513.019 782.187C513.019 771.981 512.688 761.667 513.495 751.488C514.663 733.219 513.526 714.585 513.519 696.263L513.018 567.917L513.38 567.828Z"/>
	<path fill="#669E53" transform="scale(0.25 0.25)" d="M513.38 567.828C519.981 567.62 537.004 566.026 542.535 570.31C545.63 572.707 546.328 579.056 546.431 582.741C546.861 598.009 546.28 613.491 546.249 628.784C557.432 628.454 568.613 628.432 579.8 628.401C585.947 628.383 592.534 627.81 598.584 628.945C600.445 629.294 601.956 630.235 603.548 631.207C604.382 633.504 605.07 635.647 605.337 638.097C606.002 644.2 606.398 682.362 604.516 686.419C603.496 688.619 601.44 690.03 599.575 691.47C581.739 691.989 563.853 691.805 546.009 691.715L546.056 723.762C546.122 731.36 546.629 739.005 545.82 746.579C544.561 748.441 543.318 749.974 541.669 751.506C532.279 751.537 522.885 751.618 513.495 751.488C514.663 733.219 513.526 714.585 513.519 696.263L513.018 567.917L513.38 567.828Z"/>
	<path fill="#669E53" transform="scale(0.25 0.25)" d="M320.467 536.043C367.119 531.54 421.599 512.61 460.409 486.18C467.181 481.568 473.824 476.705 479.893 471.189C485.059 466.495 507.407 440.737 511.654 440.313C512.515 440.227 512.999 440.849 513.664 441.318C513.041 443.011 513.067 444.487 513.045 446.276C512.69 475.756 513.424 505.215 513.476 534.686C513.486 540.178 512.318 564.725 513.38 567.828L513.018 567.917L513.519 696.263C513.526 714.585 514.663 733.219 513.495 751.488C512.688 761.667 513.019 771.981 513.019 782.187L513.033 839.803C513.038 849.144 513.498 858.723 513.034 868.038C495.899 861.312 463.677 835.159 449.66 822.156C370.243 748.483 324.481 644.022 320.467 536.043Z"/>
	<path fill="#A6C957" transform="scale(0.25 0.25)" d="M482.472 570.511C490.587 566.377 504.012 567.279 513.018 567.917L513.519 696.263C513.526 714.585 514.663 733.219 513.495 751.488C503.57 751.45 493.216 753.683 483.966 748.987C481.957 746.44 480.733 743.935 480.023 740.772C478.514 734.046 479.15 726.469 479.176 719.606L479.212 691.994C463.761 692.037 447.803 692.91 432.409 691.941C426.547 691.572 423.922 690.483 420.069 686.13C418.187 677.532 419.538 669.263 419.483 660.592C419.448 655.145 418.843 649.703 418.944 644.253C419.008 640.812 419.263 634.288 421.918 631.926C424.127 629.961 427.528 629.1 430.39 628.729C436.645 627.917 443.443 628.412 449.769 628.425C459.576 628.445 469.463 628.236 479.255 628.781L479.185 597.726C479.177 591.27 478.757 584.334 479.837 577.955C480.309 575.162 481.097 572.983 482.472 570.511Z"/>
	<path fill="#2F541D" transform="scale(0.25 0.25)" d="M104.356 534.726C110.69 539.683 116.681 545.109 122.991 550.117C134.728 558.361 146.443 566.752 158.667 574.265C165.234 595.376 169.468 616.665 177.524 637.442C209.894 720.927 271.116 788.517 350.229 830.072C379.108 845.241 410.924 856.612 442.925 863.021C447.406 863.919 451.851 864.608 456.402 865.035C462.766 865.632 470.126 865.364 476.142 867.539C483.134 870.067 489.858 876.219 496.316 879.98C501.814 883.182 507.812 885.541 513.216 888.865C517.857 885.503 523.678 883.006 528.654 880.052C533.897 876.939 543.111 869.721 548.206 868.063C554.354 866.062 562.13 866.285 568.61 865.221C583.188 862.828 597.779 859.736 611.983 855.663C644.067 846.461 674.771 831.901 702.98 814.152C774.091 769.407 825.848 698.938 851.558 619.365C856.333 604.587 859.348 589.691 862.79 574.588C875.93 567.547 888.027 558.793 900.47 550.637C906.361 546.055 912.256 541.513 917.532 536.216C911.881 627.251 879.44 708.204 820.886 778.233C755.588 856.327 652.282 909.06 551.021 918.055C441.452 927.788 334.953 895.74 250.422 824.878C231.891 809.344 214.929 791.68 199.54 773.051C143.067 704.692 112.135 622.711 104.356 534.726Z"/>
	<path fill="#386641" transform="scale(0.25 0.25)" d="M122.991 550.117C134.728 558.361 146.443 566.752 158.667 574.265C165.234 595.376 169.468 616.665 177.524 637.442C209.894 720.927 271.116 788.517 350.229 830.072C379.108 845.241 410.924 856.612 442.925 863.021C447.406 863.919 451.851 864.608 456.402 865.035C462.766 865.632 470.126 865.364 476.142 867.539C483.134 870.067 489.858 876.219 496.316 879.98C501.814 883.182 507.812 885.541 513.216 888.865C511.114 893.039 511.957 899.056 512.05 903.672C416.837 901.407 333.433 872.125 259.894 811.067C183.139 747.339 132.247 649.326 122.991 550.117Z"/>
	<path fill="#192B0E" transform="scale(0.25 0.25)" d="M900.47 550.637C900.881 564.655 897.444 580.094 894.588 593.764C880.323 662.021 847.696 727.467 799.748 778.336C739.883 841.848 659.365 883.455 573.563 898.089C556.761 900.955 539.658 903.199 522.604 903.673C519.128 903.769 515.509 903.993 512.05 903.672C511.957 899.056 511.114 893.039 513.216 888.865C517.857 885.503 523.678 883.006 528.654 880.052C533.897 876.939 543.111 869.721 548.206 868.063C554.354 866.062 562.13 866.285 568.61 865.221C583.188 862.828 597.779 859.736 611.983 855.663C644.067 846.461 674.771 831.901 702.98 814.152C774.091 769.407 825.848 698.938 851.558 619.365C856.333 604.587 859.348 589.691 862.79 574.588C875.93 567.547 888.027 558.793 900.47 550.637Z"/>
</svg>
